<mxfile host="app.diagrams.net" modified="2023-06-29T09:55:43.222Z" agent="Mozilla/5.0 (Windows NT 10.0; Win64; x64) AppleWebKit/537.36 (KHTML, like Gecko) Chrome/114.0.0.0 Safari/537.36" etag="3SYbVK0ybTpdVNWqBrIs" version="21.5.0" type="device">
  <diagram name="Страница 1" id="SegJMU6LBVGPYz4K0BF8">
    <mxGraphModel dx="724" dy="405" grid="1" gridSize="10" guides="1" tooltips="1" connect="1" arrows="1" fold="1" page="1" pageScale="1" pageWidth="827" pageHeight="1169" math="0" shadow="0">
      <root>
        <mxCell id="0" />
        <mxCell id="1" parent="0" />
        <mxCell id="cgpPkR8Wj-j5GL89MVvL-3" style="edgeStyle=orthogonalEdgeStyle;rounded=0;orthogonalLoop=1;jettySize=auto;html=1;entryX=0;entryY=0.5;entryDx=0;entryDy=0;" edge="1" parent="1" source="cgpPkR8Wj-j5GL89MVvL-1" target="cgpPkR8Wj-j5GL89MVvL-2">
          <mxGeometry relative="1" as="geometry" />
        </mxCell>
        <mxCell id="cgpPkR8Wj-j5GL89MVvL-1" value="Гравець" style="shape=umlActor;verticalLabelPosition=bottom;verticalAlign=top;html=1;outlineConnect=0;" vertex="1" parent="1">
          <mxGeometry x="230" y="230" width="30" height="60" as="geometry" />
        </mxCell>
        <mxCell id="cgpPkR8Wj-j5GL89MVvL-2" value="Взаємодіє з додатком" style="ellipse;whiteSpace=wrap;html=1;" vertex="1" parent="1">
          <mxGeometry x="340" y="240" width="120" height="40" as="geometry" />
        </mxCell>
        <mxCell id="cgpPkR8Wj-j5GL89MVvL-5" style="edgeStyle=orthogonalEdgeStyle;rounded=0;orthogonalLoop=1;jettySize=auto;html=1;entryX=1;entryY=0.5;entryDx=0;entryDy=0;curved=1;dashed=1;" edge="1" parent="1" source="cgpPkR8Wj-j5GL89MVvL-4" target="cgpPkR8Wj-j5GL89MVvL-2">
          <mxGeometry relative="1" as="geometry" />
        </mxCell>
        <mxCell id="cgpPkR8Wj-j5GL89MVvL-4" value="Обирає налаштування гри" style="ellipse;whiteSpace=wrap;html=1;" vertex="1" parent="1">
          <mxGeometry x="540" y="160" width="120" height="50" as="geometry" />
        </mxCell>
        <mxCell id="cgpPkR8Wj-j5GL89MVvL-9" style="edgeStyle=orthogonalEdgeStyle;rounded=0;orthogonalLoop=1;jettySize=auto;html=1;exitX=0.5;exitY=1;exitDx=0;exitDy=0;entryX=0.5;entryY=0;entryDx=0;entryDy=0;dashed=1;" edge="1" parent="1" source="cgpPkR8Wj-j5GL89MVvL-7" target="cgpPkR8Wj-j5GL89MVvL-4">
          <mxGeometry relative="1" as="geometry" />
        </mxCell>
        <mxCell id="cgpPkR8Wj-j5GL89MVvL-7" value="Обирає розмір поля" style="ellipse;whiteSpace=wrap;html=1;" vertex="1" parent="1">
          <mxGeometry x="480" y="60" width="120" height="50" as="geometry" />
        </mxCell>
        <mxCell id="cgpPkR8Wj-j5GL89MVvL-10" style="edgeStyle=orthogonalEdgeStyle;rounded=0;orthogonalLoop=1;jettySize=auto;html=1;exitX=0.5;exitY=1;exitDx=0;exitDy=0;dashed=1;" edge="1" parent="1" source="cgpPkR8Wj-j5GL89MVvL-8">
          <mxGeometry relative="1" as="geometry">
            <mxPoint x="600" y="160" as="targetPoint" />
          </mxGeometry>
        </mxCell>
        <mxCell id="cgpPkR8Wj-j5GL89MVvL-8" value="Обирає кількість кораблів" style="ellipse;whiteSpace=wrap;html=1;" vertex="1" parent="1">
          <mxGeometry x="620" y="60" width="120" height="50" as="geometry" />
        </mxCell>
        <mxCell id="cgpPkR8Wj-j5GL89MVvL-12" style="edgeStyle=orthogonalEdgeStyle;rounded=0;orthogonalLoop=1;jettySize=auto;html=1;exitX=0;exitY=0.5;exitDx=0;exitDy=0;entryX=1;entryY=0.5;entryDx=0;entryDy=0;dashed=1;" edge="1" parent="1" source="cgpPkR8Wj-j5GL89MVvL-11" target="cgpPkR8Wj-j5GL89MVvL-2">
          <mxGeometry relative="1" as="geometry" />
        </mxCell>
        <mxCell id="cgpPkR8Wj-j5GL89MVvL-11" value="Розташовує кораблі на полі" style="ellipse;whiteSpace=wrap;html=1;" vertex="1" parent="1">
          <mxGeometry x="540" y="235" width="120" height="50" as="geometry" />
        </mxCell>
        <mxCell id="cgpPkR8Wj-j5GL89MVvL-14" style="edgeStyle=orthogonalEdgeStyle;rounded=0;orthogonalLoop=1;jettySize=auto;html=1;exitX=0;exitY=0.5;exitDx=0;exitDy=0;entryX=1;entryY=0.5;entryDx=0;entryDy=0;dashed=1;" edge="1" parent="1" source="cgpPkR8Wj-j5GL89MVvL-13" target="cgpPkR8Wj-j5GL89MVvL-11">
          <mxGeometry relative="1" as="geometry" />
        </mxCell>
        <mxCell id="cgpPkR8Wj-j5GL89MVvL-13" value="Ручна зміна положення" style="ellipse;whiteSpace=wrap;html=1;" vertex="1" parent="1">
          <mxGeometry x="700" y="190" width="120" height="50" as="geometry" />
        </mxCell>
        <mxCell id="cgpPkR8Wj-j5GL89MVvL-16" style="edgeStyle=orthogonalEdgeStyle;rounded=0;orthogonalLoop=1;jettySize=auto;html=1;exitX=0;exitY=0.5;exitDx=0;exitDy=0;entryX=1;entryY=0.5;entryDx=0;entryDy=0;dashed=1;" edge="1" parent="1" source="cgpPkR8Wj-j5GL89MVvL-15" target="cgpPkR8Wj-j5GL89MVvL-11">
          <mxGeometry relative="1" as="geometry" />
        </mxCell>
        <mxCell id="cgpPkR8Wj-j5GL89MVvL-15" value="Випадкове розташування" style="ellipse;whiteSpace=wrap;html=1;" vertex="1" parent="1">
          <mxGeometry x="700" y="280" width="120" height="50" as="geometry" />
        </mxCell>
        <mxCell id="cgpPkR8Wj-j5GL89MVvL-18" style="edgeStyle=orthogonalEdgeStyle;rounded=0;orthogonalLoop=1;jettySize=auto;html=1;entryX=1;entryY=0.5;entryDx=0;entryDy=0;dashed=1;curved=1;" edge="1" parent="1" source="cgpPkR8Wj-j5GL89MVvL-17" target="cgpPkR8Wj-j5GL89MVvL-2">
          <mxGeometry relative="1" as="geometry" />
        </mxCell>
        <mxCell id="cgpPkR8Wj-j5GL89MVvL-17" value="Починає пошук опонента з даними налаштуваннями" style="ellipse;whiteSpace=wrap;html=1;" vertex="1" parent="1">
          <mxGeometry x="535" y="320" width="130" height="60" as="geometry" />
        </mxCell>
        <mxCell id="cgpPkR8Wj-j5GL89MVvL-22" style="edgeStyle=orthogonalEdgeStyle;rounded=0;orthogonalLoop=1;jettySize=auto;html=1;exitX=0.5;exitY=0;exitDx=0;exitDy=0;entryX=0.5;entryY=1;entryDx=0;entryDy=0;dashed=1;" edge="1" parent="1" source="cgpPkR8Wj-j5GL89MVvL-21" target="cgpPkR8Wj-j5GL89MVvL-17">
          <mxGeometry relative="1" as="geometry" />
        </mxCell>
        <mxCell id="cgpPkR8Wj-j5GL89MVvL-21" value="Опонента знайдено - гра почалась" style="ellipse;whiteSpace=wrap;html=1;" vertex="1" parent="1">
          <mxGeometry x="535" y="400" width="130" height="50" as="geometry" />
        </mxCell>
      </root>
    </mxGraphModel>
  </diagram>
</mxfile>
